<?xml version="1.0" encoding="iso-8859-1"?>
<!-- Generator: Adobe Illustrator 19.0.0, SVG Export Plug-In . SVG Version: 6.00 Build 0)  -->
<svg version="1.1" id="Capa_1" xmlns="http://www.w3.org/2000/svg" xmlns:xlink="http://www.w3.org/1999/xlink" x="0px" y="0px"
	 viewBox="0 0 512 512" style="enable-background:new 0 0 512 512;" xml:space="preserve">
<g>
	<g>
		<path d="M474.699,37.385H37.301C16.734,37.385,0,54.118,0,74.686v362.627c0,20.568,16.734,37.302,37.301,37.302h437.399
			c20.568,0,37.301-16.734,37.301-37.302V74.686C512,54.118,495.266,37.385,474.699,37.385z M30.017,74.686
			c0-4.016,3.268-7.283,7.283-7.283h437.399c4.016,0,7.283,3.268,7.283,7.283v53.099H30.017V74.686z M481.983,437.313
			c0,4.016-3.267,7.283-7.283,7.283H37.301c-4.016,0-7.283-3.268-7.283-7.284v-279.51h451.965V437.313z"/>
	</g>
</g>
<g>
	<g>
		<path d="M83.589,95.803c-0.039-0.48-0.119-0.971-0.21-1.451c-0.1-0.48-0.22-0.961-0.369-1.431c-0.141-0.47-0.301-0.931-0.49-1.381
			c-0.19-0.45-0.4-0.901-0.63-1.331c-0.23-0.43-0.48-0.85-0.75-1.261c-0.271-0.41-0.57-0.81-0.87-1.181
			c-0.32-0.39-0.65-0.75-1.001-1.101c-0.34-0.35-0.71-0.68-1.091-0.991c-0.38-0.31-0.78-0.6-1.182-0.88
			c-0.41-0.27-0.831-0.52-1.271-0.75c-0.43-0.23-0.871-0.44-1.321-0.63c-0.45-0.18-0.921-0.35-1.391-0.49
			c-0.46-0.14-0.941-0.26-1.421-0.36c-0.48-0.1-0.972-0.17-1.451-0.22c-0.981-0.1-1.981-0.1-2.952,0
			c-0.49,0.05-0.98,0.12-1.461,0.22c-0.479,0.1-0.961,0.22-1.431,0.36c-0.46,0.14-0.932,0.31-1.381,0.49
			c-0.45,0.19-0.892,0.4-1.331,0.63c-0.431,0.23-0.852,0.48-1.262,0.75c-0.409,0.28-0.8,0.57-1.181,0.88s-0.75,0.64-1.101,0.991
			c-0.351,0.35-0.681,0.71-0.991,1.101c-0.31,0.37-0.6,0.77-0.871,1.181c-0.27,0.41-0.53,0.831-0.76,1.261
			c-0.22,0.43-0.44,0.88-0.62,1.331c-0.19,0.45-0.36,0.911-0.5,1.381c-0.14,0.47-0.26,0.951-0.36,1.431
			c-0.09,0.48-0.17,0.971-0.22,1.451c-0.05,0.49-0.07,0.991-0.07,1.481s0.021,0.981,0.07,1.471c0.049,0.49,0.13,0.981,0.22,1.461
			c0.101,0.47,0.221,0.951,0.36,1.421c0.14,0.47,0.31,0.931,0.5,1.381c0.18,0.45,0.4,0.901,0.62,1.331
			c0.229,0.43,0.49,0.861,0.76,1.261c0.271,0.41,0.561,0.81,0.87,1.191c0.309,0.38,0.64,0.75,0.991,1.091
			c0.35,0.35,0.72,0.68,1.101,0.991c0.38,0.31,0.771,0.61,1.181,0.88c0.41,0.27,0.831,0.52,1.262,0.75
			c0.439,0.23,0.88,0.44,1.331,0.63c0.449,0.18,0.921,0.35,1.381,0.49c0.47,0.14,0.951,0.27,1.431,0.36
			c0.48,0.1,0.971,0.17,1.461,0.22c0.48,0.05,0.981,0.08,1.471,0.08c0.49,0,0.991-0.03,1.481-0.08c0.479-0.05,0.971-0.12,1.451-0.22
			c0.479-0.09,0.961-0.22,1.421-0.36c0.47-0.14,0.94-0.31,1.391-0.49c0.45-0.19,0.892-0.4,1.321-0.63
			c0.439-0.23,0.859-0.48,1.271-0.75c0.4-0.27,0.801-0.57,1.182-0.88c0.38-0.31,0.75-0.64,1.091-0.991
			c0.35-0.34,0.68-0.71,1.001-1.091c0.3-0.38,0.6-0.78,0.87-1.191c0.27-0.4,0.52-0.831,0.75-1.261c0.229-0.43,0.439-0.88,0.63-1.331
			c0.189-0.45,0.35-0.911,0.49-1.381c0.149-0.47,0.27-0.951,0.369-1.421c0.091-0.48,0.171-0.971,0.21-1.461
			c0.051-0.49,0.08-0.981,0.08-1.471S83.64,96.293,83.589,95.803z"/>
	</g>
</g>
<g>
	<g>
		<path d="M127.614,95.803c-0.039-0.49-0.119-0.971-0.21-1.461c-0.1-0.47-0.22-0.951-0.359-1.421c-0.15-0.47-0.311-0.931-0.5-1.381
			c-0.19-0.45-0.4-0.901-0.63-1.331c-0.23-0.43-0.48-0.85-0.75-1.261c-0.271-0.41-0.561-0.81-0.87-1.191
			c-0.311-0.38-0.65-0.75-0.991-1.091c-0.35-0.35-0.72-0.68-1.101-0.991c-0.38-0.31-0.78-0.6-1.182-0.88
			c-0.41-0.27-0.831-0.52-1.271-0.75c-0.43-0.23-0.87-0.44-1.321-0.63c-0.45-0.18-0.921-0.35-1.391-0.49
			c-0.46-0.14-0.941-0.26-1.421-0.36c-0.48-0.1-0.972-0.17-1.461-0.22c-0.972-0.1-1.972-0.1-2.952,0
			c-0.48,0.05-0.971,0.12-1.451,0.22c-0.479,0.1-0.961,0.22-1.431,0.36c-0.46,0.14-0.932,0.31-1.381,0.49
			c-0.45,0.19-0.891,0.4-1.331,0.63c-0.431,0.23-0.852,0.48-1.262,0.75c-0.409,0.28-0.8,0.57-1.181,0.88
			c-0.38,0.31-0.75,0.64-1.101,0.991c-0.34,0.34-0.681,0.71-0.991,1.091c-0.31,0.38-0.6,0.78-0.87,1.191
			c-0.27,0.41-0.53,0.831-0.75,1.261c-0.229,0.43-0.45,0.88-0.63,1.331c-0.19,0.45-0.36,0.911-0.5,1.381
			c-0.14,0.47-0.26,0.951-0.36,1.421c-0.09,0.49-0.17,0.971-0.22,1.461c-0.05,0.49-0.07,0.991-0.07,1.481s0.021,0.981,0.07,1.471
			c0.049,0.49,0.13,0.981,0.22,1.461c0.101,0.47,0.221,0.951,0.36,1.421c0.14,0.47,0.31,0.931,0.5,1.381
			c0.18,0.45,0.4,0.901,0.63,1.331c0.22,0.43,0.48,0.861,0.75,1.261c0.271,0.41,0.561,0.81,0.87,1.191
			c0.309,0.38,0.65,0.75,0.991,1.091c0.35,0.35,0.72,0.68,1.101,0.991c0.38,0.31,0.771,0.61,1.181,0.88
			c0.41,0.27,0.83,0.52,1.262,0.75c0.43,0.23,0.88,0.44,1.331,0.63c0.449,0.18,0.921,0.35,1.381,0.49
			c0.47,0.14,0.951,0.27,1.431,0.36c0.48,0.1,0.971,0.17,1.451,0.22c0.49,0.05,0.991,0.07,1.48,0.07c0.49,0,0.991-0.02,1.472-0.07
			c0.489-0.05,0.98-0.12,1.461-0.22c0.479-0.09,0.961-0.22,1.421-0.36c0.47-0.14,0.94-0.31,1.391-0.49
			c0.45-0.19,0.891-0.4,1.321-0.63c0.439-0.23,0.859-0.48,1.271-0.75c0.4-0.27,0.801-0.57,1.182-0.88
			c0.38-0.31,0.75-0.64,1.101-0.991c0.34-0.34,0.68-0.71,0.991-1.091c0.31-0.38,0.6-0.78,0.87-1.191c0.27-0.4,0.52-0.831,0.75-1.261
			c0.229-0.43,0.439-0.88,0.63-1.331c0.189-0.45,0.35-0.911,0.5-1.381c0.14-0.47,0.26-0.951,0.359-1.421
			c0.091-0.48,0.171-0.971,0.21-1.461c0.051-0.49,0.08-0.981,0.08-1.471S127.665,96.293,127.614,95.803z"/>
	</g>
</g>
<g>
	<g>
		<path d="M172.652,95.803c-0.05-0.49-0.13-0.971-0.221-1.461c-0.1-0.47-0.22-0.951-0.359-1.421c-0.15-0.47-0.311-0.931-0.5-1.381
			c-0.19-0.45-0.4-0.901-0.63-1.331c-0.23-0.43-0.48-0.86-0.75-1.261c-0.271-0.41-0.561-0.81-0.87-1.191
			c-0.311-0.38-0.65-0.75-0.991-1.091c-0.35-0.35-0.72-0.68-1.101-0.991c-0.38-0.31-0.78-0.6-1.182-0.88
			c-0.41-0.27-0.831-0.52-1.271-0.75c-0.43-0.23-0.87-0.44-1.321-0.62c-0.45-0.19-0.921-0.36-1.391-0.5
			c-0.46-0.14-0.941-0.26-1.421-0.36c-0.48-0.1-0.972-0.17-1.461-0.22c-0.972-0.1-1.972-0.1-2.952,0
			c-0.48,0.05-0.971,0.12-1.451,0.22c-0.479,0.1-0.961,0.22-1.431,0.36c-0.46,0.14-0.932,0.31-1.381,0.5
			c-0.45,0.18-0.901,0.39-1.331,0.62c-0.431,0.23-0.851,0.48-1.262,0.75c-0.409,0.28-0.8,0.57-1.181,0.88s-0.75,0.64-1.101,0.991
			c-0.34,0.34-0.681,0.71-0.991,1.091c-0.31,0.38-0.6,0.78-0.87,1.191c-0.27,0.4-0.53,0.831-0.75,1.261
			c-0.229,0.43-0.439,0.88-0.63,1.331c-0.191,0.45-0.35,0.911-0.5,1.381c-0.14,0.47-0.26,0.951-0.36,1.421
			c-0.09,0.49-0.17,0.971-0.22,1.461c-0.04,0.49-0.07,0.991-0.07,1.481c0,0.48,0.03,0.981,0.07,1.471
			c0.049,0.49,0.129,0.981,0.219,1.461c0.101,0.47,0.221,0.951,0.36,1.421c0.15,0.47,0.31,0.931,0.5,1.381
			c0.19,0.45,0.4,0.901,0.63,1.331c0.22,0.43,0.48,0.861,0.75,1.261c0.271,0.41,0.561,0.81,0.87,1.191
			c0.309,0.38,0.65,0.75,0.991,1.091c0.35,0.35,0.72,0.68,1.101,0.991c0.38,0.31,0.771,0.61,1.181,0.88
			c0.41,0.27,0.83,0.52,1.262,0.75c0.43,0.23,0.88,0.44,1.331,0.63c0.449,0.18,0.921,0.35,1.381,0.49
			c0.47,0.14,0.951,0.27,1.431,0.36c0.48,0.1,0.971,0.17,1.451,0.22c0.49,0.05,0.991,0.08,1.48,0.08c0.49,0,0.991-0.03,1.472-0.08
			c0.489-0.05,0.98-0.12,1.461-0.22c0.479-0.09,0.961-0.22,1.421-0.36c0.47-0.14,0.94-0.31,1.391-0.49
			c0.45-0.19,0.891-0.4,1.321-0.63c0.439-0.23,0.859-0.48,1.271-0.75c0.4-0.27,0.801-0.57,1.182-0.88
			c0.38-0.31,0.75-0.64,1.101-0.991c2.792-2.792,4.393-6.664,4.393-10.606C172.721,96.794,172.701,96.293,172.652,95.803z"/>
	</g>
</g>
<g>
	<g>
		<path d="M443.816,203.481H68.659c-8.289,0-15.009,6.72-15.009,15.009s6.72,15.009,15.009,15.009h375.157
			c8.289,0,15.009-6.72,15.009-15.009S452.105,203.481,443.816,203.481z"/>
	</g>
</g>
<g>
	<g>
		<path d="M443.816,260.051H68.659c-8.289,0-15.009,6.72-15.009,15.009s6.72,15.009,15.009,15.009h375.157
			c8.289,0,15.009-6.72,15.009-15.009S452.105,260.051,443.816,260.051z"/>
	</g>
</g>
<g>
	<g>
		<path d="M256,316.621H68.422c-8.289,0-15.009,6.72-15.009,15.009s6.72,15.009,15.009,15.009H256
			c8.289,0,15.009-6.72,15.009-15.009S264.289,316.621,256,316.621z"/>
	</g>
</g>
<g>
	<g>
		<path d="M162.21,370.573H68.422c-8.289,0-15.009,6.72-15.009,15.009c0,8.289,6.72,15.009,15.009,15.009h93.788
			c8.289,0,15.009-6.72,15.009-15.009C177.219,377.293,170.499,370.573,162.21,370.573z"/>
	</g>
</g>
<g>
	<g>
		<path d="M443.816,370.573h-227.22c-8.289,0-15.009,6.72-15.009,15.009c0,8.289,6.72,15.009,15.009,15.009h227.22
			c8.289,0,15.009-6.72,15.009-15.009C458.825,377.293,452.105,370.573,443.816,370.573z"/>
	</g>
</g>
<g>
</g>
<g>
</g>
<g>
</g>
<g>
</g>
<g>
</g>
<g>
</g>
<g>
</g>
<g>
</g>
<g>
</g>
<g>
</g>
<g>
</g>
<g>
</g>
<g>
</g>
<g>
</g>
<g>
</g>
</svg>
